HIERARCHY
ROOT Hips
{
    OFFSET 0.000000 0.000000 0.000000
    CHANNELS 6 Xposition Yposition Zposition Zrotation Yrotation Xrotation
    JOINT LeftUpLeg
    {
        OFFSET 9.147710 -10.042348 4.006903
        CHANNELS 3 Zrotation Yrotation Xrotation
        JOINT LeftLeg
        {
            OFFSET 13.237925 -36.370876 0.000000
            CHANNELS 3 Zrotation Yrotation Xrotation
            JOINT LeftFoot
            {
                OFFSET 15.478299 -42.526321 0.000000
                CHANNELS 3 Zrotation Yrotation Xrotation
                JOINT LeftToeBase
                {
                    OFFSET 0.961354 -2.641241 11.745206
                    CHANNELS 3 Zrotation Yrotation Xrotation
                    End Site
                    {
                        OFFSET 0.000000 0.000000 0.000000
                    }
                }
            }
        }
    }
    JOINT RightUpLeg
    {
        OFFSET -8.794597 -10.042348 4.006903
        CHANNELS 3 Zrotation Yrotation Xrotation
        JOINT RightLeg
        {
            OFFSET -13.165168 -36.171009 0.000000
            CHANNELS 3 Zrotation Yrotation Xrotation
            JOINT RightFoot
            {
                OFFSET -15.736475 -43.235710 0.000000
                CHANNELS 3 Zrotation Yrotation Xrotation
                JOINT RightToeBase
                {
                    OFFSET -1.281674 -3.521429 11.517907
                    CHANNELS 3 Zrotation Yrotation Xrotation
                    End Site
                    {
                        OFFSET 0.000000 0.000000 0.000000
                    }
                }
            }
        }
    }
    JOINT Spine
    {
        OFFSET 0.124346 10.812696 0.404196
        CHANNELS 3 Zrotation Yrotation Xrotation
        JOINT Spine1
        {
            OFFSET 0.098213 10.753993 0.656782
            CHANNELS 3 Zrotation Yrotation Xrotation
            JOINT Neck1
            {
                OFFSET -0.611909 10.361199 0.286002
                CHANNELS 3 Zrotation Yrotation Xrotation
                JOINT Head
                {
                    OFFSET 0.372587 9.864154 -2.850704
                    CHANNELS 3 Zrotation Yrotation Xrotation
                    End Site
                    {
                        OFFSET 0.000000 0.000000 0.000000
                    }
                }
            }
            JOINT LeftShoulder
            {
                OFFSET 0.000000 0.000000 0.000000
                CHANNELS 3 Zrotation Yrotation Xrotation
                JOINT LeftArm
                {
                    OFFSET 16.202759 7.646469 0.909369
                    CHANNELS 3 Zrotation Yrotation Xrotation
                    JOINT LeftForeArm
                    {
                        OFFSET 30.682507 -0.000000 0.000000
                        CHANNELS 3 Zrotation Yrotation Xrotation
                        JOINT LeftHand
                        {
                            OFFSET 18.370264 -0.000000 0.000000
                            CHANNELS 3 Zrotation Yrotation Xrotation
                            End Site
                            {
                                OFFSET 0.000000 0.000000 0.000000
                            }
                        }
                    }
                }
            }
            JOINT RightShoulder
            {
                OFFSET 0.000000 0.000000 0.000000
                CHANNELS 3 Zrotation Yrotation Xrotation
                JOINT RightArm
                {
                    OFFSET -16.179277 6.970157 2.593997
                    CHANNELS 3 Zrotation Yrotation Xrotation
                    JOINT RightForeArm
                    {
                        OFFSET -30.131502 -0.000000 0.000000
                        CHANNELS 3 Zrotation Yrotation Xrotation
                        JOINT RightHand
                        {
                            OFFSET -18.239765 -0.000000 0.000000
                            CHANNELS 3 Zrotation Yrotation Xrotation
                            End Site
                            {
                                OFFSET 0.000000 0.000000 0.000000
                            }
                        }
                    }
                }
            }
        }
    }
}
MOTION
Frames: 6
Frame Time: 0.016667
-7.939978 77.382469 -29.399424 -11.415000 -5.605902 23.269489 3.449502 -11.834702 -85.907799 12.891999 18.742802 68.789917 0.424000 -1.974501 -11.775304 0.566500 -4.820302 -13.396806 36.136105 15.485608 -11.872211 -8.267598 -16.312607 53.520817 -2.814797 -9.732899 -36.237812 -3.358002 11.253202 -33.138702 12.091615 8.320698 -12.642581 -1.352101 1.942801 -3.133302 -1.487266 -2.849772 -5.748563 1.110700 -0.845700 5.450400 0.000000 0.000000 0.000000 -76.238716 30.598709 54.293812 96.300522 -59.849518 -65.453621 0.000000 0.000000 -10.301504 0.000000 0.000000 0.000000 77.266830 4.431904 73.763115 -65.877724 57.682915 -39.271912 0.000000 0.000000 25.545601 
-8.271304 78.071648 -23.403940 -9.772803 -4.955701 21.482901 -0.046102 -13.030602 -83.488197 10.340710 17.597107 60.621330 0.036000 -4.934599 -4.562098 0.708300 -5.379000 -14.992806 34.942005 11.453401 -5.576504 -7.116806 -15.429408 49.314625 -1.575400 -8.374905 -28.028214 -4.217098 12.443899 -37.320900 9.970306 8.476748 -12.862850 -1.687301 2.053801 -2.573201 -0.784122 -4.444688 -4.683874 1.642200 -1.343800 5.755803 0.000000 0.000000 0.000000 -72.404915 34.153316 56.025219 103.463608 -59.303898 -71.632515 0.000000 0.000000 -10.090100 0.000000 0.000000 0.000000 79.306198 4.945799 75.054909 -69.772919 58.396187 -42.577209 0.000000 0.000000 24.636101 
-8.702537 78.867508 -17.494818 -8.626008 -4.064899 19.536200 -4.101404 -13.276705 -80.541039 8.773005 16.659409 55.301609 -0.123300 -6.535503 0.231600 0.383000 -3.974402 -11.004603 34.319218 7.910509 -0.961900 -6.641603 -15.022503 47.505619 -0.371600 -6.853802 -16.031000 -4.082102 12.268905 -36.690002 8.149275 8.626806 -12.897938 -1.865700 2.163801 -1.988800 0.135259 -6.525266 -3.154658 1.986601 -1.972202 6.064302 0.000000 0.000000 0.000000 -67.734917 35.778423 58.728535 108.325043 -58.692329 -75.800240 0.000000 0.000000 -9.671700 0.000000 0.000000 0.000000 81.009415 5.374208 76.371231 -73.656334 58.966221 -45.895123 0.000000 0.000000 24.566500 
-9.042893 79.348976 -11.749949 -9.154497 -2.957701 18.069504 -6.429097 -12.822497 -77.997215 8.307705 16.340900 53.663422 -0.043000 -3.769600 2.254401 0.139600 -2.407801 -6.634102 35.034698 5.666800 -0.003800 -7.101398 -15.416705 49.256802 0.074400 -5.587904 -5.026604 -3.475199 11.427200 -33.734699 8.463969 9.064363 -12.627039 -2.489101 2.287100 -1.414800 0.810764 -8.078185 -2.497430 2.132301 -2.433100 6.316998 0.000000 0.000000 0.000000 -63.622303 35.328617 61.094322 111.925247 -58.103313 -78.866867 0.000000 0.000000 -10.109804 0.000000 0.000000 0.000000 82.517403 6.617802 77.062790 -77.450066 59.396431 -49.153454 0.000000 0.000000 23.910696 
-9.349949 79.254715 -6.172152 -11.082500 -1.677500 17.520300 -6.432405 -12.131804 -76.603600 8.807096 16.681995 55.420704 -0.016500 -2.792401 2.737599 0.007200 -0.549601 -1.510100 37.027416 3.659100 -1.720700 -8.544704 -16.505602 54.501816 0.091600 -5.501602 -0.689100 -4.403101 12.678299 -38.176010 10.244989 9.714092 -12.979786 -3.577599 2.382300 -1.785100 1.916476 -9.951463 -1.349154 2.221801 -2.987001 6.873004 0.000000 0.000000 0.000000 -59.923004 33.639000 63.619102 113.899689 -57.727699 -80.539902 0.000000 0.000000 -9.910904 0.000000 0.000000 0.000000 84.441811 7.478490 77.149834 -79.803596 59.603497 -51.181400 0.000000 0.000000 26.187704 
-9.723043 78.939194 -0.665475 -12.607000 0.117800 16.704903 -6.372403 -11.926603 -74.343590 9.928500 17.369499 59.249199 -0.010400 -3.813498 -2.186499 0.420301 4.161403 11.531107 38.925907 2.175300 -5.982102 -10.989710 -17.930099 62.748203 0.155700 -7.681403 0.618900 -2.641201 10.090302 -29.269619 11.601755 9.508216 -13.428255 -4.180396 2.291300 -0.824000 2.978357 -11.614126 -1.516896 2.418299 -3.481199 6.962800 0.000000 0.000000 0.000000 -58.018707 28.996305 64.452797 115.203720 -57.458202 -81.640839 0.000000 0.000000 -8.334896 0.000000 0.000000 0.000000 86.012001 9.964095 77.418793 -81.346001 59.715096 -52.512592 0.000000 0.000000 27.992502 
